<?xml version="1.0" standalone="no"?>
<!DOCTYPE svg PUBLIC "-//W3C//DTD SVG 20010904//EN"
 "http://www.w3.org/TR/2001/REC-SVG-20010904/DTD/svg10.dtd">
<svg version="1.0" xmlns="http://www.w3.org/2000/svg"
 width="500.000000pt" height="100.000000pt" viewBox="0 0 400.000000 100.000000"
 preserveAspectRatio="xMidYMid meet">

<g transform="translate(0.000000,100.000000) scale(0.100000,-0.100000)"
fill="#000000" stroke="none">
<path d="M1539 967 c-156 -56 -283 -197 -319 -350 -12 -54 -12 -180 0 -234 26
-111 117 -237 218 -301 87 -56 163 -75 282 -70 125 5 191 28 277 93 54 40 141
140 131 150 -2 2 -20 -17 -40 -44 -49 -65 -110 -114 -194 -153 -60 -28 -82
-33 -166 -36 -78 -4 -110 0 -167 17 -139 42 -260 154 -312 288 -33 86 -38 221
-11 310 36 117 97 200 197 265 90 59 175 81 293 76 84 -3 106 -8 166 -36 84
-39 145 -88 194 -153 20 -27 38 -46 40 -44 10 10 -77 110 -131 150 -88 67
-152 88 -282 92 -96 3 -118 1 -176 -20z"/>
<path d="M1557 679 c-18 -11 -37 -68 -37 -114 0 -29 1 -30 52 -30 47 0 53 -3
60 -25 5 -15 6 2 3 42 -6 99 -37 149 -78 127z m43 -25 c8 -8 14 -34 14 -57 l1
-42 -43 -3 -43 -3 7 48 c10 70 35 93 64 57z"/>
<path d="M2400 620 c-11 -11 -20 -28 -20 -37 -1 -14 -4 -12 -15 7 -14 25 -14
25 -14 -15 0 -22 4 -60 8 -85 8 -43 9 -43 10 -10 4 115 65 187 99 117 8 -17
11 -18 11 -5 1 16 -34 48 -51 48 -5 0 -17 -9 -28 -20z"/>
<path d="M1956 598 c-9 -12 -16 -29 -16 -38 0 -8 9 0 20 18 35 57 80 34 80
-40 0 -93 -97 -108 -101 -16 -1 18 -2 19 -6 5 -3 -10 1 -32 7 -48 27 -64 110
-18 110 60 0 46 -24 81 -55 81 -13 0 -31 -10 -39 -22z"/>
<path d="M2246 589 c-28 -33 -34 -85 -16 -120 8 -15 20 -19 53 -17 40 1 41 1
7 5 -19 3 -41 9 -47 15 -18 15 -16 67 2 74 11 5 13 10 5 19 -13 16 21 48 44
39 23 -9 20 -23 -6 -34 -21 -8 -21 -9 -3 -9 11 0 26 3 34 8 11 7 9 13 -8 30
-28 28 -34 27 -65 -10z"/>
<path d="M1690 591 c-5 -11 -10 -26 -10 -33 0 -7 6 -2 13 12 8 17 21 25 37 25
23 0 25 -4 24 -42 -1 -78 -69 -118 -77 -45 l-4 37 1 -40 c1 -32 5 -41 22 -43
11 -2 28 6 39 18 28 31 34 25 38 -37 2 -46 4 -39 5 29 3 110 -7 138 -47 138
-20 0 -34 -7 -41 -19z"/>
<path d="M2100 591 c-5 -11 -10 -26 -10 -33 0 -7 6 -2 13 12 8 17 21 25 37 25
20 0 25 -5 28 -30 3 -38 -31 -95 -57 -95 -15 0 -21 8 -24 38 l-4 37 1 -40 c1
-32 5 -41 22 -43 11 -2 28 6 39 18 28 31 34 25 38 -37 2 -46 4 -39 5 29 3 110
-7 138 -47 138 -20 0 -34 -7 -41 -19z"/>
<path d="M1840 591 c-8 -6 -18 -7 -22 -5 -4 3 -7 -25 -7 -63 l1 -68 8 55 c9
61 29 83 69 74 20 -4 23 -3 11 5 -18 13 -40 14 -60 2z"/>
<path d="M2483 510 c0 -36 2 -50 4 -32 2 17 2 47 0 65 -2 17 -4 3 -4 -33z"/>
<path d="M1512 480 c0 -19 2 -27 5 -17 2 9 2 25 0 35 -3 9 -5 1 -5 -18z"/>
<path d="M1738 348 c-15 -15 -23 -28 -19 -28 9 0 56 49 50 53 -2 1 -16 -10
-31 -25z"/>
<path d="M2148 348 c-15 -15 -23 -28 -19 -28 9 0 56 49 50 53 -2 1 -16 -10
-31 -25z"/>
<path d="M1610 345 c0 -18 45 -38 74 -32 16 3 14 5 -6 6 -16 0 -37 10 -48 21
-16 16 -20 17 -20 5z"/>
<path d="M2020 345 c0 -18 45 -38 74 -32 16 3 14 5 -6 6 -16 0 -37 10 -48 21
-16 16 -20 17 -20 5z"/>
</g>
</svg>
